<?xml version="1.0" encoding="UTF-8"?>
<svg version="1.1" xmlns="http://www.w3.org/2000/svg" width="609" height="600">
<path d="M0 0 C200.97 0 401.94 0 609 0 C609 198 609 396 609 600 C408.03 600 207.06 600 0 600 C0 402 0 204 0 0 Z " fill="#0A0A0A" transform="translate(0,0)"/>
<path d="M0 0 C4.31670082 2.15835041 5.55482796 3.68843643 8.375 7.5 C9.25438113 8.67379726 10.13464117 9.84693641 11.015625 11.01953125 C11.49064453 11.65584473 11.96566406 12.2921582 12.45507812 12.94775391 C15.30105447 16.72829707 18.21628566 20.4551545 21.125 24.1875 C21.73263184 24.96867187 22.34026367 25.74984375 22.96630859 26.5546875 C26.54869775 31.15545547 30.16729652 35.72383722 33.82421875 40.265625 C37.46550485 44.84174756 41.04364675 49.46711695 44.62548828 54.08984375 C47.51134291 57.8119182 50.40769502 61.52357841 53.34765625 65.203125 C53.86030029 65.84668945 54.37294434 66.49025391 54.90112305 67.15332031 C55.86341327 68.35901242 56.82956023 69.56163927 57.80004883 70.76074219 C61 74.77784436 61 74.77784436 61 77 C61.99 77 62.98 77 64 77 C64.25265625 76.44570313 64.5053125 75.89140625 64.765625 75.3203125 C66.20303594 72.61834383 67.9005124 70.31548927 69.75 67.875 C70.13341553 67.36855957 70.51683105 66.86211914 70.91186523 66.34033203 C78.27368965 56.65334442 85.72472921 47.02348577 93.375 37.5625 C96.66658558 33.47759359 99.73064851 29.2543497 102.79296875 24.99609375 C105.78916127 20.92869611 108.9136061 16.96899669 112.05371094 13.01220703 C114.62870624 9.76401627 117.13135006 6.48343451 119.5625 3.125 C120.366875 2.09375 121.17125 1.0625 122 0 C122.66 0 123.32 0 124 0 C124 44.55 124 89.1 124 135 C116.41 135 108.82 135 101 135 C101 111.24 101 87.48 101 63 C100.34 63 99.68 63 99 63 C98.79890625 63.64710938 98.5978125 64.29421875 98.390625 64.9609375 C96.41172448 69.28561336 93.60677663 72.83977097 90.75 76.625 C89.48420577 78.32148833 88.21858594 80.0181068 86.953125 81.71484375 C86.30150391 82.5847998 85.64988281 83.45475586 84.97851562 84.35107422 C81.79552731 88.61260225 78.64941063 92.90113339 75.5 97.1875 C71.3620226 102.81348932 67.19987247 108.4200343 63 114 C59.37435077 112.32615627 57.83733369 110.7560213 55.5625 107.4375 C52.09509947 102.50608591 48.49863577 97.70743863 44.8125 92.9375 C40.06990525 86.76332354 35.39940309 80.54081234 30.8125 74.25 C30.25989502 73.49968506 29.70729004 72.74937012 29.13793945 71.97631836 C26.57249794 68.43429421 24.35159187 65.21232314 23 61 C22.34 61 21.68 61 21 61 C21.16265854 62.01175797 21.32531708 63.02351593 21.49290466 64.06593323 C21.96798873 67.75165526 22.12054304 71.23273242 22.11352539 74.94506836 C22.11367142 75.59957977 22.11381744 76.25409119 22.1139679 76.92843628 C22.11327801 79.06560727 22.10552946 81.20268822 22.09765625 83.33984375 C22.09578878 84.83199516 22.09436643 86.32414719 22.09336853 87.81629944 C22.08956925 91.72398604 22.07976135 95.63163486 22.06866455 99.53930664 C22.0583945 103.53466277 22.05385897 107.53002507 22.04882812 111.52539062 C22.03813651 119.35027955 22.02056096 127.17512965 22 135 C14.74 135 7.48 135 0 135 C0 90.45 0 45.9 0 0 Z " fill="#FAFAFA" transform="translate(392,233)"/>
<path d="M0 0 C7.92 0 15.84 0 24 0 C24.0452495 12.62217391 24.0819155 25.24429363 24.10362434 37.86653042 C24.11404538 43.72802694 24.12817393 49.58946491 24.15087891 55.45092773 C24.17266713 61.11138036 24.18458126 66.7717768 24.18975449 72.43226814 C24.19343951 74.58793077 24.20063537 76.74359045 24.21146011 78.89922905 C24.22605443 81.92694534 24.22797462 84.95443172 24.22705078 87.98217773 C24.23424133 88.86619263 24.24143188 89.75020752 24.24884033 90.66101074 C24.23003058 96.38713363 23.41309028 101.44704907 22 107 C21.34 107 20.68 107 20 107 C19.814375 108.6396875 19.814375 108.6396875 19.625 110.3125 C19 114 19 114 17 117 C16.34 117 15.68 117 15 117 C14.72929687 117.59039062 14.45859375 118.18078125 14.1796875 118.7890625 C9.29330974 127.94697578 -0.4521162 131.96577594 -9.75 135.375 C-24.3202203 138.31327728 -39.82839376 135.84193552 -52.34375 127.9375 C-60.81191227 121.76072281 -65.71471565 112.85585305 -69 103 C-70.55368287 92.15489818 -70.1278349 81.066279 -70.09765625 70.140625 C-70.09578772 68.13995398 -70.09436587 66.13928249 -70.09336853 64.13861084 C-70.08957761 58.91087548 -70.07977714 53.68316857 -70.06866455 48.45544434 C-70.05837622 43.1057168 -70.05385511 37.75598461 -70.04882812 32.40625 C-70.03815132 21.93748559 -70.02058284 11.46874963 -70 1 C-61.75 1 -53.5 1 -45 1 C-45 33.01 -45 65.02 -45 98 C-44.34 98 -43.68 98 -43 98 C-42.79246094 98.51949219 -42.58492188 99.03898437 -42.37109375 99.57421875 C-39.96357533 105.02387342 -37.25954851 108.15667099 -32 111 C-25.95263571 113.0157881 -18.57559092 113.12077772 -12.6875 110.5 C-8.101743 107.81378251 -3.02506576 103.33244284 -1.42566013 98.13284683 C-0.99841062 95.9920361 -0.86176416 94.05540245 -0.84178162 91.87445068 C-0.8319928 91.06119324 -0.82220398 90.24793579 -0.81211853 89.41003418 C-0.80636307 88.52674438 -0.8006076 87.64345459 -0.79467773 86.73339844 C-0.78477814 85.79647156 -0.77487854 84.85954468 -0.76467896 83.89422607 C-0.73310746 80.79930137 -0.70832365 77.70436131 -0.68359375 74.609375 C-0.66302047 72.46274417 -0.6420239 70.31611735 -0.62062073 68.16949463 C-0.56543869 62.52082575 -0.51601231 56.87212054 -0.46777344 51.22338867 C-0.41753021 45.45878874 -0.36185886 39.69424154 -0.30664062 33.9296875 C-0.19910632 22.61983504 -0.09815243 11.30993777 0 0 Z " fill="#F9F9F9" transform="translate(350,235)"/>
<path d="M0 0 C0.99 0 1.98 0 3 0 C3.47050781 1.14597656 3.94101563 2.29195312 4.42578125 3.47265625 C5.05466017 5.0026154 5.68356795 6.53256269 6.3125 8.0625 C6.7755957 9.19075195 6.7755957 9.19075195 7.24804688 10.34179688 C9.12741097 14.91161905 11.04544821 19.46184527 13 24 C13.474375 25.134375 13.94875 26.26875 14.4375 27.4375 C15.51753653 29.89998329 16.62269688 32.19871499 17.875 34.5625 C20.36239749 39.42293188 22.01675838 44.56458968 23.75390625 49.73046875 C24.91141385 52.7675655 26.30421992 55.24322383 28 58 C28.65079782 59.58582163 29.25361892 61.19200008 29.8125 62.8125 C30.31523437 64.23175781 30.31523437 64.23175781 30.828125 65.6796875 C31.21484375 66.77539062 31.6015625 67.87109375 32 69 C33.00734575 71.81754881 34.03145436 74.62854722 35.0625 77.4375 C35.30782471 78.12368408 35.55314941 78.80986816 35.8059082 79.5168457 C36.80891984 82.23911397 37.75009531 84.66830831 39.50390625 86.99609375 C41.68202584 89.91352286 42.68483496 93.22197726 43.875 96.625 C45.54351081 101.25375517 47.23777659 105.71372719 49.5625 110.0625 C52.08385177 114.82866819 53.70613974 119.77863684 55.30102539 124.91235352 C56.26675855 127.98748299 57.19405581 130.29108372 59 133 C59 133.99 59 134.98 59 136 C51.08 136 43.16 136 35 136 C32 129 32 129 30.5625 125.625 C29.70651774 123.63912115 28.83945911 121.65739643 27.921875 119.69921875 C27.55578125 118.91160156 27.1896875 118.12398438 26.8125 117.3125 C26.46832031 116.58675781 26.12414062 115.86101562 25.76953125 115.11328125 C25 113 25 113 25 109 C9.49 109 -6.02 109 -22 109 C-22.495 110.98 -22.495 110.98 -23 113 C-26.01366808 120.80076392 -29.5031962 128.40694032 -33 136 C-40.59 136 -48.18 136 -56 136 C-52.62572422 124.75241406 -52.62572422 124.75241406 -50.4765625 119.7578125 C-50.0125 118.67113281 -49.5484375 117.58445312 -49.0703125 116.46484375 C-48.59335938 115.36269531 -48.11640625 114.26054687 -47.625 113.125 C-46.67937397 110.91940523 -45.73405993 108.71367667 -44.7890625 106.5078125 C-44.3262085 105.43080078 -43.86335449 104.35378906 -43.38647461 103.24414062 C-39.80988941 94.87547288 -36.3508772 86.46143294 -33 78 C-32.34 78 -31.68 78 -31 78 C-30.93167969 77.07316406 -30.86335938 76.14632812 -30.79296875 75.19140625 C-30.00795879 69.73469651 -27.56752835 64.92077376 -25.3125 59.9375 C-24.39820925 57.87770547 -23.48414596 55.81780995 -22.5703125 53.7578125 C-22.12719727 52.7668457 -21.68408203 51.77587891 -21.22753906 50.75488281 C-13.76359474 34.00405788 -6.93116068 16.97556581 0 0 Z " fill="#F9F9F9" transform="translate(145,232)"/>
<path d="M0 0 C7.92 0 15.84 0 24 0 C24.495 54.945 24.495 54.945 25 111 C45.295 111.495 45.295 111.495 66 112 C66 118.93 66 125.86 66 133 C44.22 133 22.44 133 0 133 C0 89.11 0 45.22 0 0 Z " fill="#FBFBFB" transform="translate(213,235)"/>
<path d="M0 0 C0.66 0 1.32 0 2 0 C4.09867256 3.14800885 4.29516177 4.96452694 4.4609375 8.671875 C5.1099085 11.47467728 6.4600069 13.62137265 7.92626953 16.07324219 C9.7365914 19.32177793 10.97535793 22.76424413 12.25 26.25 C12.518125 26.95640625 12.78625 27.6628125 13.0625 28.390625 C14.17619151 31.39077355 15 33.774156 15 37 C5.76 37 -3.48 37 -13 37 C-11.16944543 30.89815142 -9.63030317 25.82032022 -7.0625 20.1875 C-4.15997839 13.59349205 -1.95636142 6.92782104 0 0 Z " fill="#181818" transform="translate(145,284)"/>
<path d="M0 0 C0.66 0 1.32 0 2 0 C2 44.55 2 89.1 2 135 C1.67 135 1.34 135 1 135 C0.67 91.77 0.34 48.54 0 4 C-1.32 4.99 -2.64 5.98 -4 7 C-2.79618552 4.50638429 -1.54571278 2.31856917 0 0 Z " fill="#D0D0D0" transform="translate(514,233)"/>
<path d="M0 0 C0.66 0 1.32 0 2 0 C2.66 1.65 3.32 3.3 4 5 C3.34 5 2.68 5 2 5 C2 27.77 2 50.54 2 74 C1.67 74 1.34 74 1 74 C0.67 49.58 0.34 25.16 0 0 Z " fill="#8B8B8B" transform="translate(413,294)"/>
<path d="M0 0 C0.66 0 1.32 0 2 0 C2 23.76 2 47.52 2 72 C1.67 72 1.34 72 1 72 C0.67 49.89 0.34 27.78 0 5 C-0.99 5.495 -0.99 5.495 -2 6 C-1.49396008 3.83125748 -1.00016187 2.00032373 0 0 Z " fill="#464646" transform="translate(491,296)"/>
<path d="M0 0 C0.66 0 1.32 0 2 0 C2.66 1.65 3.32 3.3 4 5 C3.34 5 2.68 5 2 5 C2 11.27 2 17.54 2 24 C1.67 24 1.34 24 1 24 C0.67 16.08 0.34 8.16 0 0 Z " fill="#515151" transform="translate(413,294)"/>
<path d="M0 0 C0.66 0 1.32 0 2 0 C2 2.97 2 5.94 2 9 C1.34 7.68 0.68 6.36 0 5 C-0.99 5.495 -0.99 5.495 -2 6 C-1.49396008 3.83125748 -1.00016187 2.00032373 0 0 Z " fill="#323232" transform="translate(491,296)"/>
</svg>
