<?xml version="1.0" encoding="UTF-8"?>
<svg version="1.1" xmlns="http://www.w3.org/2000/svg" width="649" height="647">
<path d="M0 0 C214.17 0 428.34 0 649 0 C649 213.51 649 427.02 649 647 C434.83 647 220.66 647 0 647 C0 433.49 0 219.98 0 0 Z " fill="#FEFEFE" transform="translate(0,0)"/>
<path d="M0 0 C7.59 0 15.18 0 23 0 C29.74362819 10.11544228 29.74362819 10.11544228 32.83984375 15.1796875 C33.51080078 16.27410156 34.18175781 17.36851562 34.87304688 18.49609375 C35.55431641 19.61113281 36.23558594 20.72617187 36.9375 21.875 C41.88614465 29.96422122 46.87905546 38.01850045 52 46 C54.63026524 43.50079489 56.70387854 41.14444244 58.5234375 38.0078125 C58.97887939 37.23018555 59.43432129 36.45255859 59.90356445 35.65136719 C60.63192505 34.40081543 60.63192505 34.40081543 61.375 33.125 C61.9011792 32.26036133 62.4273584 31.39572266 62.96948242 30.50488281 C65.89687753 25.68633102 68.60093763 20.8491788 71.08984375 15.7890625 C72.16357275 13.7757804 73.23778 11.76275327 74.3125 9.75 C74.74030762 8.77949707 75.16811523 7.80899414 75.60888672 6.80908203 C77.11328125 4.109375 77.11328125 4.109375 82 0 C89.59 0 97.18 0 105 0 C105 34.32 105 68.64 105 104 C96.75 104 88.5 104 80 104 C80 84.53 80 65.06 80 45 C77.22885612 47.77114388 75.4311275 50.260823 73.34765625 53.55078125 C72.65349609 54.64197266 71.95933594 55.73316406 71.24414062 56.85742188 C70.51677386 58.00901782 69.78956154 59.16071132 69.0625 60.3125 C67.63790904 62.55935095 66.21141387 64.80498728 64.78515625 67.05078125 C64.15488525 68.04762939 63.52461426 69.04447754 62.87524414 70.0715332 C62.25641357 71.03792725 61.63758301 72.00432129 61 73 C59.97942505 74.65092651 59.97942505 74.65092651 58.93823242 76.33520508 C57 79 57 79 54.203125 79.5859375 C53.22859375 79.51632812 52.2540625 79.44671875 51.25 79.375 C50.26515625 79.32085937 49.2803125 79.26671875 48.265625 79.2109375 C47.51796875 79.14132812 46.7703125 79.07171875 46 79 C45.49984375 77.92492187 44.9996875 76.84984375 44.484375 75.7421875 C41.56201274 69.89488594 37.87537782 64.55278682 34.25 59.125 C32.87604583 57.06787823 31.50603116 55.00811789 30.140625 52.9453125 C29.53766602 52.04312988 28.93470703 51.14094727 28.31347656 50.21142578 C27 48 27 48 27 46 C26.34 46 25.68 46 25 46 C25 65.14 25 84.28 25 104 C16.75 104 8.5 104 0 104 C0 69.68 0 35.36 0 0 Z " fill="#060606" transform="translate(435,259)"/>
<path d="M0 0 C0.91644287 0.00523682 1.83288574 0.01047363 2.77709961 0.01586914 C4.26113281 0.02070313 4.26113281 0.02070313 5.77514648 0.02563477 C6.81606445 0.03401367 7.85698242 0.04239258 8.92944336 0.05102539 C10.49662109 0.05779297 10.49662109 0.05779297 12.09545898 0.06469727 C14.68600996 0.07652627 17.27644895 0.0930085 19.86694336 0.11352539 C20.07262939 0.65541504 20.27831543 1.19730469 20.49023438 1.75561523 C24.17114977 11.44825024 27.8598746 21.13760667 31.61694336 30.80102539 C31.88579346 31.49309082 32.15464355 32.18515625 32.43164062 32.89819336 C33.86297974 36.5717439 35.31777808 40.23460219 36.79272461 43.89086914 C39.0625653 49.55353006 41.18242047 55.26919877 43.30444336 60.98852539 C45.96642426 68.13045178 48.67768971 75.22571459 51.67553711 82.23461914 C54.64826304 89.41789459 57.40872993 96.7388851 59.86694336 104.11352539 C51.28694336 104.11352539 42.70694336 104.11352539 33.86694336 104.11352539 C31.66593349 97.51049578 29.55504087 90.86591543 27.86694336 84.11352539 C14.99694336 84.44352539 2.12694336 84.77352539 -11.13305664 85.11352539 C-13.11305664 91.05352539 -15.09305664 96.99352539 -17.13305664 103.11352539 C-18.13305664 104.11352539 -18.13305664 104.11352539 -20.54150391 104.22705078 C-21.58363037 104.22181396 -22.62575684 104.21657715 -23.69946289 104.21118164 C-24.82416992 104.20795898 -25.94887695 104.20473633 -27.10766602 104.20141602 C-28.29166992 104.19303711 -29.47567383 104.1846582 -30.69555664 104.17602539 C-31.88342773 104.17151367 -33.07129883 104.16700195 -34.29516602 104.16235352 C-37.2411789 104.15052214 -40.18709345 104.13403826 -43.13305664 104.11352539 C-40.63582069 96.3386474 -37.73356533 88.7441173 -34.76977539 81.13696289 C-34.23974823 79.77243098 -33.70977612 78.40787768 -33.17985535 77.04330444 C-27.71125597 62.97733783 -22.1685618 48.94059575 -16.6015625 34.91333008 C-15.18908222 31.35395936 -13.78029162 27.7931391 -12.37222767 24.23201942 C-11.27167371 21.45023029 -10.16879236 18.66936848 -9.06522179 15.88877487 C-8.54326355 14.57254576 -8.02214633 13.2559828 -7.50190163 11.93907547 C-6.78741265 10.13118227 -6.06934129 8.32470606 -5.35107422 6.51831055 C-4.94536697 5.49484528 -4.53965973 4.47138 -4.12165833 3.41690063 C-2.71720314 0.14461479 -2.71720314 0.14461479 0 0 Z " fill="#030303" transform="translate(141.133056640625,258.886474609375)"/>
<path d="M0 0 C8.58 0 17.16 0 26 0 C26 23.1 26 46.2 26 70 C26.66 70 27.32 70 28 70 C28.391875 70.9075 28.78375 71.815 29.1875 72.75 C31.40798082 76.73155182 33.93860016 78.96930008 38 81 C45.62383125 81.65042476 51.96336336 82.03053054 58 77 C62.0953625 71.57525281 64.11603488 67.43391058 64.20532227 60.62255859 C64.21522186 59.96877731 64.22512146 59.31499603 64.23532104 58.6414032 C64.26694711 56.47711833 64.29169772 54.3128115 64.31640625 52.1484375 C64.33697483 50.64913355 64.35797128 49.14983541 64.37937927 47.65054321 C64.43460988 43.70174869 64.48401476 39.75290174 64.53222656 35.80401611 C64.58243439 31.77554654 64.6381242 27.74715322 64.69335938 23.71875 C64.80095306 15.81256268 64.90188881 7.90631069 65 0 C72.92 0 80.84 0 89 0 C89.06792877 9.2494597 89.12290407 18.49875219 89.15543652 27.74840546 C89.17105488 32.04395355 89.19222266 36.3393213 89.22631836 40.63476562 C89.25904913 44.7844875 89.27688179 48.93403651 89.28463173 53.08387756 C89.29015072 54.6626304 89.30092777 56.24137438 89.31719017 57.8200531 C89.46747541 73.0213782 89.46747541 73.0213782 86 80 C85.63519531 80.8146875 85.27039063 81.629375 84.89453125 82.46875 C78.97317364 93.58465599 70.50298097 99.60957111 58.72265625 103.8125 C46.41623915 107.11254481 32.43408406 105.57675854 21.1875 99.6875 C10.76024903 93.3708109 4.79463114 85.56990475 1 74 C0.01795175 69.98193248 -0.12107766 66.22947791 -0.11352539 62.09838867 C-0.11367142 61.42466217 -0.11381744 60.75093567 -0.1139679 60.05679321 C-0.11327472 57.84381826 -0.10551036 55.63092889 -0.09765625 53.41796875 C-0.09578995 51.87811835 -0.09436705 50.33826735 -0.09336853 48.79841614 C-0.08956002 44.75589341 -0.07974402 40.71340691 -0.06866455 36.67089844 C-0.05841455 32.54167165 -0.05386323 28.41243898 -0.04882812 24.28320312 C-0.0381202 16.18878365 -0.02053695 8.09440051 0 0 Z " fill="#040404" transform="translate(314,259)"/>
<path d="M0 0 C8.25 0 16.5 0 25 0 C25 27.06 25 54.12 25 82 C40.18 82 55.36 82 71 82 C71 89.26 71 96.52 71 104 C47.57 104 24.14 104 0 104 C0 69.68 0 35.36 0 0 Z " fill="#010101" transform="translate(221,259)"/>
<path d="M0 0 C2 1 2 1 2.89453125 3.265625 C3.19746094 4.25046875 3.50039062 5.2353125 3.8125 6.25 C5.62919882 11.96645454 7.72079853 17.52224277 9.94921875 23.08984375 C11 26 11 26 12 31 C4.41 31 -3.18 31 -11 31 C-9.95497781 24.72986685 -8.15796335 19.22114335 -6.0625 13.25 C-5.70220703 12.19683594 -5.34191406 11.14367187 -4.97070312 10.05859375 C-4.62072266 9.05441406 -4.27074219 8.05023438 -3.91015625 7.015625 C-3.43267944 5.64325684 -3.43267944 5.64325684 -2.94555664 4.24316406 C-2 2 -2 2 0 0 Z " fill="#F0F0F0" transform="translate(149,293)"/>
<path d="M0 0 C2.9375 1.4375 2.9375 1.4375 5 4 C6.29947616 8.32620634 6.52896531 11.75693153 4.75 15.9375 C1.99342387 19.18632186 0.39901867 19.96138529 -3.875 20.375 C-8.01539255 20.28349961 -10.08332292 19.00506123 -13 16 C-14.60086627 12.79826746 -14.49917089 9.47422941 -14 6 C-10.29458843 0.1948552 -6.74614381 -0.87880801 0 0 Z " fill="#F6F6F6" transform="translate(274,405)"/>
<path d="M0 0 C3.24000075 1.08000025 3.6336358 1.49783862 5.48046875 4.16015625 C5.92197266 4.78857422 6.36347656 5.41699219 6.81835938 6.06445312 C7.49608398 7.05348633 7.49608398 7.05348633 8.1875 8.0625 C8.65091797 8.72572266 9.11433594 9.38894531 9.59179688 10.07226562 C10.73472863 11.71007505 11.8682718 13.35442897 13 15 C13.33 10.05 13.66 5.1 14 0 C14.66 0 15.32 0 16 0 C16 6.6 16 13.2 16 20 C11.7181671 17.85908355 10.46562924 16.32199671 7.75 12.5 C6.69039063 11.03046875 6.69039063 11.03046875 5.609375 9.53125 C4 7 4 7 4 5 C3.34 5 2.68 5 2 5 C2 9.95 2 14.9 2 20 C1.34 20 0.68 20 0 20 C0 13.4 0 6.8 0 0 Z " fill="#5D5D5D" transform="translate(293,405)"/>
<path d="M0 0 C2.9375 1.4375 2.9375 1.4375 5 4 C6.29947616 8.32620634 6.52896531 11.75693153 4.75 15.9375 C1.99342387 19.18632186 0.39901867 19.96138529 -3.875 20.375 C-8.01539255 20.28349961 -10.08332292 19.00506123 -13 16 C-14.60086627 12.79826746 -14.49917089 9.47422941 -14 6 C-10.29458843 0.1948552 -6.74614381 -0.87880801 0 0 Z M-11 4 C-12.61499021 7.22998043 -12.57976204 10.50809992 -12 14 C-10.1235883 17.21013047 -10.1235883 17.21013047 -7 19 C-3.34256132 19 -1.06054525 18.81308469 1.875 16.5625 C4.42123002 13.02606942 4.5126168 10.32062733 4 6 C2.20185875 3.64543068 0.57940101 2.63692757 -2 1 C-6.29387011 1 -7.58866484 1.60284556 -11 4 Z " fill="#505050" transform="translate(274,405)"/>
<path d="M0 0 C0.66 0 1.32 0 2 0 C3.79826445 2.25814848 5.4746801 4.51277739 7.125 6.875 C7.82689453 7.85146484 7.82689453 7.85146484 8.54296875 8.84765625 C12 13.73587828 12 13.73587828 12 16 C12.66 16 13.32 16 14 16 C14 10.72 14 5.44 14 0 C14.33 0 14.66 0 15 0 C15 6.6 15 13.2 15 20 C9.54672145 15.63737716 6.85472613 11.74429776 3 6 C2.67 10.62 2.34 15.24 2 20 C1.34 20 0.68 20 0 20 C0 13.4 0 6.8 0 0 Z " fill="#5A5A5A" transform="translate(324,405)"/>
<path d="M0 0 C3.96 0 7.92 0 12 0 C12 0.66 12 1.32 12 2 C8.7 2 5.4 2 2 2 C2 4.31 2 6.62 2 9 C4.64 9 7.28 9 10 9 C10 9.33 10 9.66 10 10 C7.36 10 4.72 10 2 10 C2 12.97 2 15.94 2 19 C5.3 19 8.6 19 12 19 C12 19.33 12 19.66 12 20 C8.04 20 4.08 20 0 20 C0 13.4 0 6.8 0 0 Z " fill="#3D3D3D" transform="translate(354,405)"/>
<path d="M0 0 C0.66 0 1.32 0 2 0 C2 19.47 2 38.94 2 59 C1.67 59 1.34 59 1 59 C0.67 41.18 0.34 23.36 0 5 C-1.32 5.99 -2.64 6.98 -4 8 C-2.87548273 5.0280615 -1.77706209 2.66559313 0 0 Z " fill="#C1C1C1" transform="translate(513,304)"/>
<path d="M0 0 C2.4375 1 2.4375 1 4 2 C4 2.66 4 3.32 4 4 C3.29875 3.649375 2.5975 3.29875 1.875 2.9375 C-1.58229692 1.81012057 -3.52082298 2.01675432 -7 3 C-9.01951062 3.93597315 -9.01951062 3.93597315 -10 6 C-10.64919671 11.59237177 -10.64919671 11.59237177 -8.375 16.5 C-4.72275641 18.80668016 -1.73472296 18.36520483 2.375 17.5 C3.179375 17.2525 3.179375 17.2525 4 17 C3 18.5 3 18.5 1 20 C-3.72281301 20.53322082 -5.87802509 20.69228239 -9.9375 18.1875 C-12.61777392 15.34478523 -12.95437565 13.49274294 -13.3125 9.625 C-12.94884973 5.40665686 -11.95115008 3.95115008 -9 1 C-5.97562661 -0.5121867 -3.33758466 -0.17263369 0 0 Z " fill="#363636" transform="translate(244,405)"/>
<path d="M0 0 C4.62 0 9.24 0 14 0 C14 0.66 14 1.32 14 2 C12.02 2 10.04 2 8 2 C8 7.94 8 13.88 8 20 C7.34 20 6.68 20 6 20 C6 14.06 6 8.12 6 2 C4.02 2 2.04 2 0 2 C0 1.34 0 0.68 0 0 Z " fill="#525252" transform="translate(406,405)"/>
<path d="M0 0 C0.66 0 1.32 0 2 0 C2 5.61 2 11.22 2 17 C1.67 17 1.34 17 1 17 C0.67 13.04 0.34 9.08 0 5 C-1.32 5.99 -2.64 6.98 -4 8 C-2.87548273 5.0280615 -1.77706209 2.66559313 0 0 Z " fill="#D3D3D3" transform="translate(513,304)"/>
<path d="M0 0 C0.66 0.33 1.32 0.66 2 1 C0.63016497 4.16115776 0.0109362 4.9927092 -3 7 C-10.06542056 7.56074766 -10.06542056 7.56074766 -13.5 5.5 C-13.995 5.005 -14.49 4.51 -15 4 C-14.67 3.34 -14.34 2.68 -14 2 C-13.525625 2.515625 -13.05125 3.03125 -12.5625 3.5625 C-8.69002384 5.73486467 -5.24770076 4.75333154 -1 4 C-0.67 2.68 -0.34 1.36 0 0 Z " fill="#3B3B3B" transform="translate(277,418)"/>
<path d="M0 0 C2.95183101 2.95183101 3.08663988 5.95511947 4 10 C3.01 10 2.02 10 1 10 C-0.1577506 6.52674819 -0.06866652 3.63932552 0 0 Z " fill="#646464" transform="translate(231,411)"/>
</svg>
